<svg viewBox="0 0 59.34 47.03" xmlns="http://www.w3.org/2000/svg" id="Logos">
  <defs>
    <style>
      .cls-1 {
        fill: #fff;
        fill-rule: evenodd;
      }
    </style>
  </defs>
  <path d="M41.16,19.27h-2.39v1.99h-4.04v2.34h1.49v3.92h2.55v-5.78h2.38v-2.48h0ZM44.55,23.83c-.82-.44-1.61-.33-1.55-.76.07-.48,1.06-.11,1.82.33l.69-1.68c-.93-.54-1.59-.66-2.22-.69-.79-.04-1.62.27-2.06.66-.72.64-.88,1.66-.45,2.47.53,1.01,1.7,1,2.1,1.2.25.12.23.45-.05.53-.67.21-2-.64-2-.64l-.72,1.66c.92.53,1.67.84,2.72.84,3.12,0,3.3-3.15,1.72-3.93ZM14.25,21.26h-2.9l-1.36,3.05v-3.05h-2.56v6.26h2.56v-3.18l1.43,3.18h2.93l-1.55-3.2,1.45-3.07h0ZM49.38,21.26v3.93h0c0,.18-.15.33-.34.33s-.33-.15-.34-.33h0v-3.93h-2.54v3.92c0,1.72,1.14,2.59,2.87,2.59s2.89-.84,2.89-2.59v-3.92h-2.54,0,0ZM17.28,25.35c-.52,0-.94-.43-.94-.95s.42-.95.94-.95.94.43.94.95-.42.95-.94.95ZM17.28,21.02c-1.83,0-3.31,1.51-3.31,3.37s1.48,3.37,3.31,3.37,3.31-1.51,3.31-3.37-1.48-3.37-3.31-3.37ZM30.77,21.26l-2,5.88-.87-5.88h-2.32l-.78,2.51-.78-2.51h-2.32l-.93,6.26h2.3l.34-2.38.65,2.38h1.49l.65-2.38.34,2.38h4.77l.76-2.95.76,2.95h2.65l-2.14-6.26h-2.55,0Z" class="cls-1"></path>
</svg>