<?xml version="1.0" standalone="no"?>
<!DOCTYPE svg PUBLIC "-//W3C//DTD SVG 20010904//EN"
 "http://www.w3.org/TR/2001/REC-SVG-20010904/DTD/svg10.dtd">
<svg version="1.0" xmlns="http://www.w3.org/2000/svg"
 width="1920.000000pt" height="1080.000000pt" viewBox="0 0 1920.000000 1080.000000"
 preserveAspectRatio="xMidYMid meet">

<g transform="translate(0.000000,1080.000000) scale(0.100000,-0.100000)"
fill="#000000" stroke="none">
<path d="M11814 8327 c-2 -7 -3 -67 -2 -132 l3 -119 80 -13 c211 -33 271 -45
340 -68 71 -24 175 -86 221 -133 82 -82 125 -183 164 -380 14 -74 14 -4012 0
-4079 -47 -217 -195 -369 -409 -418 -84 -20 -286 -21 -377 -1 -155 33 -293 92
-397 170 -53 40 -379 339 -455 418 l-32 34 73 95 c111 144 307 427 307 445 0
3 9 19 20 34 62 87 236 442 291 593 115 316 158 522 159 760 l0 127 -652 -2
-653 -3 0 -120 0 -120 75 -12 c142 -24 205 -35 255 -48 242 -62 335 -151 335
-320 0 -183 -130 -518 -339 -875 -44 -74 -189 -295 -216 -328 -8 -9 -32 -41
-53 -70 -52 -70 -218 -257 -257 -289 -16 -14 -50 -44 -75 -67 -25 -23 -65 -57
-90 -76 -25 -19 -47 -38 -50 -41 -23 -30 -315 -199 -395 -229 -141 -54 -231
-77 -389 -96 -293 -36 -587 29 -791 174 -83 60 -141 114 -196 182 -130 162
-185 284 -229 508 -13 68 -13 345 0 414 6 29 15 78 21 108 12 63 42 155 70
217 10 24 19 45 19 48 0 12 91 146 138 201 69 84 278 251 301 242 4 -2 68 -75
141 -163 74 -88 153 -180 176 -205 23 -25 55 -61 70 -80 16 -19 33 -40 39 -46
5 -6 46 -50 90 -99 44 -48 91 -100 105 -115 14 -15 70 -76 125 -136 55 -60
139 -149 186 -199 48 -49 98 -103 111 -119 24 -29 26 -29 49 -14 83 56 297
297 398 446 l43 64 -104 106 c-102 105 -292 309 -379 407 -24 27 -67 75 -95
105 -166 180 -307 351 -297 360 4 4 46 27 93 51 244 124 433 255 599 415 180
173 258 302 322 539 20 73 18 372 -3 446 -27 93 -78 206 -127 282 -54 81 -205
230 -272 266 -275 150 -447 193 -762 190 -186 -1 -299 -15 -446 -55 -84 -23
-120 -34 -196 -64 -58 -22 -198 -98 -255 -138 -128 -91 -255 -235 -323 -367
-75 -145 -101 -257 -101 -435 1 -372 95 -554 613 -1193 l25 -30 -30 -23 c-16
-13 -33 -24 -37 -24 -5 0 -28 -13 -52 -30 -24 -16 -46 -30 -49 -30 -9 0 -223
-142 -316 -211 -436 -318 -639 -636 -681 -1065 -22 -225 18 -473 104 -654 121
-254 320 -447 599 -583 151 -73 283 -113 518 -157 97 -18 424 -29 554 -19 184
14 381 56 520 110 27 10 52 19 57 19 32 0 346 160 436 221 23 16 44 29 47 29
9 0 143 96 218 156 37 30 72 54 78 54 6 0 91 -80 188 -179 237 -238 296 -270
545 -291 170 -13 3277 -14 3489 0 430 28 834 114 1178 250 118 47 336 151 419
201 34 22 65 39 67 39 10 0 216 143 301 209 86 66 311 280 379 361 129 152
243 322 352 526 47 88 130 298 170 429 28 94 35 119 61 235 65 286 70 879 12
1235 -43 260 -131 519 -262 772 -243 466 -699 876 -1249 1121 -198 88 -480
184 -660 224 -25 5 -63 14 -85 19 -96 22 -391 71 -512 84 -256 28 -581 35
-1781 35 -990 0 -1214 -2 -1218 -13z m2611 -352 c637 -63 1112 -287 1506 -711
334 -361 547 -907 609 -1564 11 -117 4 -653 -10 -764 -45 -360 -88 -548 -176
-772 -37 -93 -130 -272 -189 -364 -202 -314 -531 -585 -860 -709 -33 -13 -69
-26 -80 -31 -21 -8 -132 -41 -200 -59 -77 -21 -191 -40 -303 -52 -132 -13
-469 -7 -552 10 -320 68 -452 143 -527 301 -38 80 -50 122 -63 223 -6 51 -10
859 -10 2283 l0 2204 23 5 c12 3 78 6 147 8 361 8 546 6 685 -8z m-5110 -729
c98 -18 102 -19 194 -64 203 -101 321 -336 321 -637 -1 -306 -122 -548 -375
-752 -99 -79 -313 -213 -341 -213 -8 0 -62 60 -120 133 -369 463 -496 780
-425 1058 44 173 127 291 271 388 82 55 114 68 210 86 89 17 170 18 265 1z"/>
<path d="M1564 8317 c-2 -7 -3 -65 -2 -127 l3 -114 70 -13 c141 -26 182 -36
280 -66 220 -67 377 -182 523 -379 72 -97 154 -251 237 -443 26 -60 58 -134
71 -163 13 -29 24 -55 24 -57 0 -2 14 -34 30 -70 17 -36 30 -68 30 -70 0 -3
16 -40 36 -82 19 -43 60 -136 91 -208 30 -71 64 -150 75 -175 39 -87 56 -126
88 -200 18 -41 43 -99 56 -128 13 -29 24 -54 24 -57 0 -2 16 -39 35 -82 20
-43 40 -87 44 -98 5 -11 17 -38 26 -60 10 -22 24 -56 32 -75 9 -19 28 -63 44
-98 16 -35 29 -65 29 -67 0 -3 122 -286 165 -382 8 -18 22 -50 31 -70 9 -21
29 -66 45 -101 16 -35 29 -65 29 -67 0 -3 116 -273 164 -380 16 -36 44 -99 61
-140 7 -16 22 -50 33 -75 11 -25 50 -115 87 -200 72 -167 94 -215 131 -298 13
-29 24 -55 24 -57 0 -2 11 -28 24 -57 13 -29 54 -123 91 -208 37 -85 75 -173
85 -195 10 -22 32 -74 50 -115 18 -41 40 -93 50 -115 10 -22 39 -89 65 -150
50 -116 72 -166 105 -240 l21 -45 201 2 202 3 13 25 c11 22 76 161 126 270 8
19 34 76 57 125 67 142 142 306 188 405 13 30 49 106 78 168 30 62 54 115 54
116 0 2 27 61 61 132 33 71 71 153 85 182 36 78 84 181 207 442 19 41 45 98
57 125 12 28 53 115 91 194 38 79 69 145 69 147 0 1 20 45 44 96 24 51 59 127
79 168 19 41 53 113 75 160 22 47 56 121 77 165 80 172 109 234 161 343 30 62
54 114 54 116 0 2 30 66 66 142 36 77 78 166 94 199 15 33 53 113 84 178 31
64 56 119 56 121 0 3 32 71 71 153 39 81 81 171 94 198 88 190 171 352 215
420 225 344 581 602 935 679 l60 13 3 121 c3 119 2 122 -20 127 -13 3 -567 4
-1233 3 l-1210 -3 -3 -124 c-1 -68 1 -128 6 -133 4 -4 89 -10 187 -14 463 -15
703 -97 746 -256 25 -94 10 -142 -159 -508 -16 -36 -37 -83 -47 -105 -9 -22
-28 -62 -40 -90 -53 -114 -136 -296 -173 -380 -22 -49 -51 -116 -66 -147 -63
-140 -82 -181 -141 -313 -35 -77 -74 -165 -88 -195 -24 -53 -41 -92 -88 -197
-12 -27 -35 -77 -51 -113 -17 -36 -53 -114 -80 -175 -27 -60 -57 -128 -67
-150 -36 -78 -69 -151 -89 -195 -28 -64 -60 -135 -94 -210 -46 -100 -79 -172
-95 -210 -9 -19 -26 -57 -38 -85 -26 -56 -57 -125 -122 -270 -25 -55 -57 -127
-73 -160 -15 -33 -35 -78 -45 -100 -10 -22 -32 -71 -50 -110 -17 -38 -38 -85
-45 -103 -7 -18 -17 -31 -22 -30 -5 2 -33 59 -64 128 -30 69 -63 143 -73 165
-11 22 -26 56 -34 75 -8 19 -27 62 -42 95 -15 33 -64 143 -110 245 -105 235
-122 274 -150 335 -13 28 -30 66 -38 85 -9 19 -34 75 -56 123 -23 49 -41 90
-41 92 0 3 -49 113 -89 200 -11 22 -29 63 -41 90 -12 28 -33 74 -46 103 -13
28 -35 77 -49 107 -14 31 -25 57 -25 59 0 2 -21 48 -46 102 -25 55 -51 113
-59 129 -7 17 -22 51 -34 78 -12 26 -29 66 -40 90 -10 23 -47 105 -81 182 -95
213 -101 228 -115 260 -7 17 -22 50 -33 75 -11 25 -34 79 -52 120 -18 41 -40
93 -50 115 -10 22 -46 105 -79 185 -62 146 -67 157 -94 220 -8 19 -32 78 -52
130 -20 52 -40 102 -44 110 -4 8 -14 39 -21 68 -12 43 -12 59 -1 90 28 80 136
154 276 190 109 28 275 48 408 51 91 2 114 5 125 19 9 12 12 51 10 137 l-3
120 -1358 3 c-1114 2 -1359 0 -1363 -11z"/>
</g>
</svg>
