<svg xmlns="http://www.w3.org/2000/svg" xmlns:xlink="http://www.w3.org/1999/xlink" width="500" zoomAndPan="magnify" viewBox="0 0 375 374.999991" height="500" preserveAspectRatio="xMidYMid meet" version="1.0"><defs><g/></defs><path stroke-linecap="butt" transform="matrix(0.75, 0, 0, 0.75, 16.28716, -16.256648)" fill="none" stroke-linejoin="miter" d="M 125.64317 367.899513 L 125.64317 162.587 L 166.648381 162.587 L 166.648381 367.899513 Z M 166.648381 408.998474 L 166.648381 367.899513 L 289.851514 367.899513 L 289.851514 408.998474 Z M 166.648381 162.587 L 166.648381 121.586997 L 289.851514 121.586997 L 289.851514 162.587 Z M 289.851514 367.899513 L 289.851514 326.894302 L 330.955684 326.894302 L 330.955684 367.899513 Z M 289.851514 203.691169 L 289.851514 162.587 L 330.955684 162.587 L 330.955684 203.691169 Z M 289.851514 203.691169 " stroke="#860000" stroke-width="30.796875" stroke-opacity="1" stroke-miterlimit="4"/><g fill="#ffffff" fill-opacity="1"><g transform="translate(95.107467, 290.493332)"><g><path d="M 15.40625 -30.796875 L 15.40625 -184.78125 L 46.203125 -184.78125 L 46.203125 -30.796875 Z M 46.203125 0 L 46.203125 -30.796875 L 138.59375 -30.796875 L 138.59375 0 Z M 46.203125 -184.78125 L 46.203125 -215.578125 L 138.59375 -215.578125 L 138.59375 -184.78125 Z M 138.59375 -30.796875 L 138.59375 -61.59375 L 169.390625 -61.59375 L 169.390625 -30.796875 Z M 138.59375 -153.984375 L 138.59375 -184.78125 L 169.390625 -184.78125 L 169.390625 -153.984375 Z M 138.59375 -153.984375 "/></g></g></g><path stroke-linecap="butt" transform="matrix(0.831217, 0, 0, 0.831217, 158.960077, 156.329344)" fill="none" stroke-linejoin="miter" d="M 75.079173 37.495307 L 98.581036 37.495307 L 98.581036 42.19944 L 75.079173 42.19944 Z M 75.079173 18.697576 L 98.581036 18.697576 L 98.581036 23.401709 L 75.079173 23.401709 Z M 70.375041 56.297738 L 70.375041 23.401709 L 75.079173 23.401709 L 75.079173 56.297738 Z M 103.266371 28.105841 L 98.581036 28.105841 L 98.581036 23.401709 L 103.266371 23.401709 Z M 103.266371 51.588906 L 103.266371 56.297738 L 98.581036 56.297738 L 98.581036 51.588906 Z M 98.581036 61.00187 L 75.079173 61.00187 L 75.079173 56.297738 L 98.581036 56.297738 Z M 107.190397 61.00187 L 107.190397 23.401709 L 111.894529 23.401709 L 111.894529 18.697576 L 135.396393 18.697576 L 135.396393 23.401709 L 140.081727 23.401709 L 140.081727 61.00187 L 135.396393 61.00187 L 135.396393 42.19944 L 111.894529 42.19944 L 111.894529 61.00187 Z M 111.894529 37.495307 L 135.396393 37.495307 L 135.396393 23.401709 L 111.894529 23.401709 Z M 111.894529 37.495307 " stroke="#003d0f" stroke-width="11.94534" stroke-opacity="1" stroke-miterlimit="4"/><g fill="#ffffff" fill-opacity="1"><g transform="translate(217.456997, 207.033602)"><g><path d="M 3.90625 -19.53125 L 23.4375 -19.53125 L 23.4375 -15.625 L 3.90625 -15.625 Z M 3.90625 -35.15625 L 23.4375 -35.15625 L 23.4375 -31.25 L 3.90625 -31.25 Z M 0 -3.90625 L 0 -31.25 L 3.90625 -31.25 L 3.90625 -3.90625 Z M 27.34375 -27.34375 L 23.4375 -27.34375 L 23.4375 -31.25 L 27.34375 -31.25 Z M 27.34375 -7.8125 L 27.34375 -3.90625 L 23.4375 -3.90625 L 23.4375 -7.8125 Z M 23.4375 0 L 3.90625 0 L 3.90625 -3.90625 L 23.4375 -3.90625 Z M 23.4375 0 "/></g></g></g><g fill="#ffffff" fill-opacity="1"><g transform="translate(248.0576, 207.033602)"><g><path d="M 0 0 L 0 -31.25 L 3.90625 -31.25 L 3.90625 -35.15625 L 23.4375 -35.15625 L 23.4375 -31.25 L 27.34375 -31.25 L 27.34375 0 L 23.4375 0 L 23.4375 -15.625 L 3.90625 -15.625 L 3.90625 0 Z M 3.90625 -19.53125 L 23.4375 -19.53125 L 23.4375 -31.25 L 3.90625 -31.25 Z M 3.90625 -19.53125 "/></g></g></g></svg>