<svg xmlns="http://www.w3.org/2000/svg" xmlns:xlink="http://www.w3.org/1999/xlink" width="500" zoomAndPan="magnify" viewBox="0 0 375 374.999991" height="500" preserveAspectRatio="xMidYMid meet" version="1.0"><defs><g/></defs><path stroke-linecap="butt" transform="matrix(1.010593, 0, 0, 1.010593, 16.28716, 6.703096)" fill="none" stroke-linejoin="miter" d="M 194.97179 228.706328 L 251.664236 232.726247 L 253.225819 281.456161 L 241.915933 303.40337 L 104.500434 304.296255 L 84.041369 293.361304 L 82.553226 80.355878 L 91.706271 60.194441 L 237.973321 62.053654 L 256.275546 78.199037 L 251.961864 144.040662 L 194.376533 144.040662 L 189.243406 109.593054 L 146.535639 107.733842 L 149.291602 258.913696 L 189.838664 261.963422 Z M 194.97179 228.706328 " stroke="#003d0f" stroke-width="22.855576" stroke-opacity="1" stroke-miterlimit="4"/><g fill="#860000" fill-opacity="1"><g transform="translate(93.550126, 313.923263)"><g><path d="M 119.796875 -76.0625 L 177.078125 -72.0625 L 178.625 -22.796875 L 167.234375 -0.609375 L 28.328125 0.3125 L 7.703125 -10.78125 L 6.15625 -226.046875 L 15.40625 -246.375 L 163.21875 -244.53125 L 181.703125 -228.203125 L 177.390625 -161.6875 L 119.1875 -161.6875 L 113.953125 -196.484375 L 70.828125 -198.328125 L 73.609375 -45.578125 L 114.5625 -42.5 Z M 119.796875 -76.0625 "/></g></g></g><path stroke-linecap="butt" transform="matrix(1.573597, 0, 0, 1.573597, 162.268645, 169.074085)" fill="none" stroke-linejoin="miter" d="M 32.35577 8.286235 C 33.60192 7.643301 34.895234 7.09718 36.238196 6.645389 C 37.581158 6.19608 38.926603 5.798901 40.277012 5.451369 L 41.133429 5.225473 C 41.905446 5.079013 42.677463 4.940001 43.446998 4.805953 C 44.219015 4.66694 45.003444 4.57261 45.800284 4.522963 C 45.969085 4.498139 46.137887 4.485727 46.301723 4.485727 C 46.465559 4.485727 46.631878 4.485727 46.803162 4.485727 C 46.085757 4.657011 45.353458 4.835741 44.606264 5.024401 C 43.859071 5.213061 43.12429 5.391792 42.399438 5.563076 C 41.130947 5.836136 39.867421 6.129056 38.608859 6.446799 C 37.350298 6.754613 36.101666 7.119521 34.862963 7.539042 C 34.438478 7.668125 34.018958 7.812103 33.604402 7.975939 C 33.197293 8.134811 32.782738 8.313541 32.35577 8.514613 C 32.258957 8.464966 32.258957 8.390495 32.35577 8.286235 Z M 53.299523 23.478338 C 53.252358 23.704233 53.125757 23.828352 52.927168 23.853176 C 51.559382 24.101413 50.184149 24.409226 48.798987 24.774135 C 47.418789 25.131596 46.070863 25.548634 44.750242 26.022767 C 44.132132 26.24618 43.50161 26.472076 42.863641 26.697971 C 42.233119 26.921385 41.605079 27.169621 40.979522 27.445165 L 40.942287 27.445165 C 40.917463 27.467506 40.880227 27.487365 40.833062 27.499777 C 40.783415 27.509706 40.73625 27.529565 40.686603 27.554389 C 40.485531 27.651201 40.279494 27.738084 40.06601 27.81752 C 39.855009 27.889509 39.64649 27.976392 39.4479 28.073204 L 39.410665 28.11044 C 39.264205 28.212217 38.986179 28.336335 38.571624 28.482795 C 38.164515 28.63422 37.779748 28.758338 37.414839 28.857633 C 37.057378 28.95941 36.876165 29.01154 36.876165 29.01154 C 36.876165 29.01154 36.831482 29.016505 36.739635 29.028916 C 36.655234 29.041328 36.575798 29.048775 36.50381 29.048775 C 36.205925 29.09594 35.905559 29.093458 35.600227 29.038846 C 35.302343 28.989198 35.081412 28.805503 34.934952 28.482795 C 34.862963 28.336335 34.850551 28.165052 34.900199 27.96398 C 34.426066 27.762908 34.058676 27.420341 33.795544 26.933796 C 33.534896 26.447252 33.492695 25.970637 33.668943 25.503951 C 33.564684 24.853571 33.482766 24.200707 33.423189 23.542879 C 33.36113 22.880087 33.306518 22.224741 33.259352 21.57436 L 32.802596 17.10113 L 32.35577 12.843866 C 31.881637 12.320086 31.68553 11.709423 31.764966 11.011877 C 31.836955 10.319296 32.147251 9.735939 32.693372 9.261806 C 32.718196 9.214641 32.74302 9.164994 32.767843 9.115347 C 32.790185 9.060734 32.815008 9.011087 32.839832 8.96144 C 33.239494 8.785191 33.639155 8.623837 34.033852 8.477378 C 34.433513 8.325953 34.835657 8.189423 35.237801 8.067787 C 36.476504 7.643301 37.725136 7.275911 38.981215 6.965614 C 40.239776 6.655318 41.503302 6.377293 42.774276 6.126573 C 43.769706 5.90316 44.750242 5.659888 45.718366 5.396757 C 46.688973 5.136108 47.662062 4.880424 48.632668 4.632187 C 48.761751 4.657011 48.893317 4.674387 49.024882 4.686799 C 49.166378 4.699211 49.283049 4.728999 49.382344 4.778647 L 49.983077 5.007025 C 50.07989 5.079013 50.176702 5.160932 50.273514 5.252779 C 50.377774 5.33718 50.477069 5.416616 50.573881 5.488604 C 50.702964 5.890748 50.789847 6.285445 50.839495 6.672695 C 50.889142 7.057462 50.87673 7.4323 50.802259 7.804655 L 48.935517 8.368153 C 48.533373 8.489789 48.113853 8.613908 47.676956 8.742991 C 47.245023 8.864627 46.818056 8.986263 46.391088 9.1079 C 46.294276 9.162512 46.222287 9.189818 46.17264 9.189818 C 45.698507 9.311454 45.142456 9.465361 44.504487 9.654021 C 43.873965 9.842681 43.238479 10.031341 42.60051 10.220001 C 41.967505 10.401214 41.428831 10.567533 40.979522 10.72144 C 40.535178 10.865417 40.262117 10.96223 40.157858 11.011877 C 39.562089 11.212949 38.963838 11.42395 38.363105 11.649846 C 37.767336 11.875742 37.183979 12.111567 36.613034 12.359804 L 36.541045 12.434275 C 36.563387 12.555911 36.595657 12.761948 36.630411 13.052385 C 36.667646 13.337857 36.704882 13.605953 36.739635 13.85419 C 36.781835 14.10491 36.804176 14.266264 36.804176 14.338252 C 37.849254 13.888944 38.889367 13.449564 39.922033 13.017632 C 40.954699 12.580735 42.004741 12.161214 43.074642 11.75907 C 43.670411 11.612611 44.271145 11.458704 44.879325 11.294867 C 45.49247 11.131031 46.098169 10.96223 46.691455 10.793429 L 47.175517 10.674275 C 47.401413 10.62711 47.619861 10.594839 47.830863 10.582427 C 48.044346 10.572498 48.262795 10.552639 48.488691 10.527815 C 48.962823 10.505474 49.40965 10.537744 49.826688 10.629592 C 50.253655 10.713993 50.591258 10.979606 50.839495 11.421468 C 50.889142 11.47608 50.918931 11.52821 50.931342 11.577857 C 50.943754 11.625022 50.961131 11.67467 50.985955 11.721835 C 51.03312 11.796306 51.070355 11.870777 51.095179 11.950213 C 51.120003 12.024684 51.147309 12.096673 51.177097 12.168661 C 51.201921 12.193485 51.224262 12.205897 51.249086 12.205897 C 51.596618 12.382145 51.805137 12.694924 51.879608 13.144233 C 51.956561 13.491764 51.901949 13.846743 51.713289 14.211652 C 51.527111 14.569113 51.259015 14.837209 50.911483 15.013457 C 50.511822 15.182258 50.104713 15.289 49.690158 15.3312 C 49.283049 15.368436 48.870976 15.43546 48.451455 15.532272 C 48.002146 15.604261 47.54539 15.686179 47.083669 15.778027 C 46.621949 15.862427 46.170157 15.966687 45.725813 16.088323 C 44.827195 16.33656 43.933542 16.607138 43.047336 16.900058 C 42.166095 17.185531 41.292301 17.513203 40.423471 17.883076 C 39.874868 18.108972 39.346123 18.344797 38.837237 18.595517 C 38.325869 18.843753 37.809536 19.104402 37.288239 19.377463 L 37.506687 21.802738 C 37.506687 21.827562 37.506687 21.844938 37.506687 21.85735 C 37.506687 21.869762 37.506687 21.899551 37.506687 21.949198 L 37.623358 21.874727 C 38.042879 21.676137 38.459917 21.494924 38.87199 21.338535 C 39.286546 21.174699 39.691172 21.005898 40.085869 20.837096 L 43.255855 19.595912 C 43.531398 19.476758 43.809424 19.365051 44.094896 19.268239 C 44.387816 19.166462 44.668324 19.064684 44.943867 18.967872 C 45.385729 18.791624 45.832555 18.625305 46.281864 18.466433 C 46.731173 18.302597 47.177999 18.146208 47.622344 17.992301 L 49.079495 17.545474 C 49.280567 17.498309 49.481639 17.431285 49.68271 17.346885 C 49.8813 17.255037 50.07989 17.185531 50.273514 17.135883 C 50.998366 16.984459 51.58917 17.049 52.050891 17.327026 C 52.512612 17.600086 52.880003 17.999748 53.155546 18.521045 C 53.428606 19.044825 53.632161 19.61577 53.763726 20.233881 C 53.905221 20.854473 53.98714 21.425418 54.011963 21.949198 C 54.034305 22.276871 53.97721 22.572273 53.838197 22.832922 C 53.704149 23.09357 53.525419 23.309537 53.299523 23.478338 Z M 44.268662 15.569508 C 43.697717 15.745756 43.116843 15.922004 42.528521 16.098253 C 41.945164 16.267054 41.366772 16.453231 40.795827 16.654303 C 40.418507 16.751116 40.051116 16.857858 39.693655 16.972047 C 39.333711 17.081271 38.978732 17.185531 38.626236 17.282343 C 38.554247 17.706828 38.355657 18.056842 38.035432 18.329903 C 38.951426 17.85577 39.889762 17.433768 40.850439 17.063894 C 41.811116 16.686574 42.749452 16.314219 43.667929 15.941863 C 43.866518 15.845051 44.080002 15.758168 44.305898 15.678732 Z M 36.019748 28.482795 C 36.292808 28.507619 36.603104 28.512584 36.950636 28.500172 C 37.295686 28.490242 37.496758 28.470383 37.55137 28.44556 C 37.601017 28.44556 37.63577 28.43563 37.660594 28.410806 C 37.807054 28.336335 37.955996 28.261864 38.107421 28.182428 C 38.258845 28.11044 38.395375 28.035969 38.517012 27.96398 C 38.814896 27.812555 39.107816 27.663613 39.393288 27.517153 C 39.678761 27.365729 39.956786 27.216787 40.229847 27.070327 L 40.229847 26.988409 C 39.909621 27.115009 39.574501 27.244093 39.229452 27.370693 C 38.88192 27.49233 38.531906 27.613966 38.179409 27.735602 C 37.83436 27.862203 37.479381 27.993768 37.114473 28.127816 C 36.754529 28.266829 36.392103 28.385983 36.019748 28.482795 Z M 67.185899 26.879184 C 67.039439 26.829537 66.873121 26.568888 66.684461 26.094755 C 66.4958 25.620623 66.294729 25.037266 66.081245 24.344685 C 65.870243 23.647139 65.669171 22.924769 65.480511 22.175094 C 65.299298 21.4279 65.130497 20.757661 64.979073 20.161892 C 64.832613 19.566123 64.7358 19.129226 64.688635 18.848718 L 61.771851 18.895883 C 61.49879 20.01295 61.260483 21.125051 61.061893 22.232188 C 60.865786 23.336843 60.716844 24.463839 60.615067 25.613176 C 60.615067 25.836589 60.508325 25.948296 60.294841 25.948296 C 60.088804 25.948296 59.996957 25.836589 60.02178 25.613176 C 60.118593 24.493627 60.26257 23.369113 60.45123 22.239635 C 60.637408 21.10271 60.905504 19.988126 61.253036 18.895883 L 60.915433 18.895883 C 60.793797 19.337745 60.669679 19.878902 60.540596 20.516871 C 60.418959 21.149875 60.302288 21.77295 60.185617 22.386095 C 60.076392 22.994276 59.982062 23.503161 59.902627 23.917717 C 59.830638 24.324826 59.793402 24.52838 59.793402 24.52838 L 59.574954 26.20398 C 59.495518 27.055432 59.207563 27.666095 58.708607 28.035969 C 58.212133 28.413289 57.663529 28.562231 57.06776 28.482795 C 56.474474 28.410806 55.968071 28.125334 55.555997 27.626378 C 55.148889 27.127421 55.004911 26.44477 55.126547 25.57594 C 55.280454 24.481215 55.451738 23.388972 55.647845 22.294247 C 55.846434 21.194558 56.084742 20.109762 56.357803 19.042343 C 56.189001 19.064684 56.015236 19.084543 55.838987 19.096955 C 55.662739 19.106885 55.501385 19.114332 55.354925 19.114332 C 55.404573 18.992696 55.416984 18.880989 55.392161 18.77673 C 54.791427 18.63027 54.352048 18.310044 54.078987 17.811088 C 53.805927 17.312131 53.728973 16.758563 53.850609 16.152865 C 53.979692 15.537237 54.329707 14.976221 54.900652 14.464853 C 55.476561 13.955968 56.325532 13.615883 57.442598 13.444599 C 57.715659 12.200932 58.013543 10.972159 58.336251 9.763245 C 58.663924 8.554331 59.061103 7.377688 59.530271 6.235798 C 59.753684 5.739324 60.004404 5.198167 60.277464 4.61481 C 60.550525 4.031453 60.893092 3.520085 61.307648 3.083188 C 61.719721 2.646291 62.236054 2.427843 62.856646 2.427843 C 63.179355 2.403019 63.49958 2.489902 63.822288 2.690974 C 64.149961 2.892046 64.388269 3.140283 64.532246 3.438167 C 65.08085 3.462991 65.532641 3.656616 65.890102 4.021524 C 66.255011 4.378985 66.461047 4.858083 66.510695 5.451369 C 66.565307 6.201045 66.629848 6.953203 66.701837 7.712808 C 66.773826 8.472413 66.848297 9.214641 66.920286 9.937011 C 66.950074 9.961835 66.97738 9.971764 67.002204 9.971764 C 67.027028 9.323866 67.056816 8.680932 67.094052 8.05041 C 67.131287 7.412441 67.185899 6.781919 67.257888 6.163809 C 67.257888 6.05955 67.275265 6.285445 67.3125 6.839014 C 67.3547 7.385135 67.401865 8.087646 67.44903 8.944063 C 67.498678 9.800481 67.545843 10.659381 67.59549 11.523245 C 67.642655 12.379663 67.707197 13.092103 67.786633 13.663048 C 68.504038 13.737519 69.062571 13.980791 69.464715 14.392865 C 69.864376 14.80742 70.112613 15.279071 70.211908 15.815262 C 70.30872 16.348972 70.256591 16.877717 70.055519 17.401497 C 69.861894 17.922794 69.50195 18.344797 68.980653 18.667505 C 69.22889 19.76223 69.492021 21.000933 69.765081 22.386095 C 70.038142 23.766293 70.246661 25.014925 70.393121 26.131991 C 70.49738 26.975997 70.430356 27.616448 70.192049 28.055827 C 69.956224 28.492725 69.643445 28.735997 69.253713 28.783162 C 68.871428 28.832809 68.484179 28.696279 68.096929 28.373571 C 67.714644 28.050863 67.409313 27.554389 67.185899 26.879184 Z M 61.662627 14.037886 C 61.935687 13.988238 62.288184 13.95845 62.720116 13.946038 C 63.157013 13.933626 63.49958 13.91625 63.7503 13.891426 C 63.700652 13.563753 63.64604 13.102032 63.583981 12.506264 C 63.524404 11.910495 63.44745 11.272526 63.358085 10.592357 C 63.271202 9.907223 63.166943 9.274218 63.037859 8.695826 C 62.739975 9.740904 62.479326 10.676757 62.253431 11.503386 C 62.034982 12.325051 61.838875 13.169056 61.662627 14.037886 Z M 61.662627 14.037886 " stroke="#003d0f" stroke-width="5.693328" stroke-opacity="1" stroke-miterlimit="4"/><g fill="#ffffff" fill-opacity="1"><g transform="translate(211.836957, 213.134806)"><g><path d="M 1.34375 -31.015625 C 3.300781 -32.035156 5.335938 -32.894531 7.453125 -33.59375 C 9.578125 -34.300781 11.695312 -34.929688 13.8125 -35.484375 L 15.15625 -35.84375 C 16.375 -36.070312 17.585938 -36.296875 18.796875 -36.515625 C 20.015625 -36.734375 21.25 -36.878906 22.5 -36.953125 C 22.769531 -36.992188 23.03125 -37.015625 23.28125 -37.015625 C 23.539062 -37.015625 23.8125 -37.015625 24.09375 -37.015625 C 22.957031 -36.734375 21.800781 -36.445312 20.625 -36.15625 C 19.445312 -35.863281 18.289062 -35.582031 17.15625 -35.3125 C 15.15625 -34.875 13.164062 -34.410156 11.1875 -33.921875 C 9.207031 -33.429688 7.238281 -32.851562 5.28125 -32.1875 C 4.613281 -32 3.957031 -31.773438 3.3125 -31.515625 C 2.664062 -31.265625 2.007812 -30.984375 1.34375 -30.671875 C 1.1875 -30.742188 1.1875 -30.859375 1.34375 -31.015625 Z M 34.3125 -7.109375 C 34.226562 -6.753906 34.03125 -6.554688 33.71875 -6.515625 C 31.5625 -6.128906 29.394531 -5.648438 27.21875 -5.078125 C 25.050781 -4.515625 22.929688 -3.859375 20.859375 -3.109375 C 19.878906 -2.753906 18.890625 -2.398438 17.890625 -2.046875 C 16.890625 -1.703125 15.898438 -1.3125 14.921875 -0.875 L 14.859375 -0.875 C 14.828125 -0.84375 14.769531 -0.816406 14.6875 -0.796875 C 14.601562 -0.773438 14.523438 -0.742188 14.453125 -0.703125 C 14.140625 -0.546875 13.816406 -0.410156 13.484375 -0.296875 C 13.148438 -0.179688 12.828125 -0.0390625 12.515625 0.125 L 12.453125 0.171875 C 12.222656 0.328125 11.78125 0.519531 11.125 0.75 C 10.476562 0.988281 9.867188 1.1875 9.296875 1.34375 C 8.734375 1.507812 8.453125 1.59375 8.453125 1.59375 C 8.453125 1.59375 8.382812 1.597656 8.25 1.609375 C 8.113281 1.628906 7.988281 1.640625 7.875 1.640625 C 7.40625 1.722656 6.929688 1.722656 6.453125 1.640625 C 5.984375 1.566406 5.632812 1.273438 5.40625 0.765625 C 5.289062 0.523438 5.269531 0.25 5.34375 -0.0625 C 4.601562 -0.375 4.023438 -0.910156 3.609375 -1.671875 C 3.203125 -2.429688 3.132812 -3.1875 3.40625 -3.9375 C 3.25 -4.957031 3.117188 -5.984375 3.015625 -7.015625 C 2.921875 -8.054688 2.835938 -9.085938 2.765625 -10.109375 L 2.0625 -17.15625 L 1.34375 -23.859375 C 0.601562 -24.679688 0.289062 -25.640625 0.40625 -26.734375 C 0.53125 -27.828125 1.019531 -28.75 1.875 -29.5 C 1.914062 -29.570312 1.957031 -29.644531 2 -29.71875 C 2.039062 -29.800781 2.078125 -29.882812 2.109375 -29.96875 C 2.742188 -30.238281 3.375 -30.488281 4 -30.71875 C 4.625 -30.957031 5.25 -31.175781 5.875 -31.375 C 7.832031 -32.039062 9.800781 -32.617188 11.78125 -33.109375 C 13.757812 -33.597656 15.75 -34.035156 17.75 -34.421875 C 19.3125 -34.773438 20.851562 -35.15625 22.375 -35.5625 C 23.90625 -35.976562 25.4375 -36.382812 26.96875 -36.78125 C 27.164062 -36.738281 27.367188 -36.707031 27.578125 -36.6875 C 27.796875 -36.664062 27.984375 -36.617188 28.140625 -36.546875 L 29.078125 -36.1875 C 29.234375 -36.070312 29.390625 -35.945312 29.546875 -35.8125 C 29.703125 -35.675781 29.859375 -35.546875 30.015625 -35.421875 C 30.210938 -34.796875 30.347656 -34.179688 30.421875 -33.578125 C 30.503906 -32.972656 30.488281 -32.375 30.375 -31.78125 L 27.4375 -30.90625 C 26.8125 -30.707031 26.15625 -30.507812 25.46875 -30.3125 C 24.78125 -30.113281 24.101562 -29.921875 23.4375 -29.734375 C 23.28125 -29.648438 23.164062 -29.609375 23.09375 -29.609375 C 22.34375 -29.410156 21.46875 -29.164062 20.46875 -28.875 C 19.46875 -28.582031 18.46875 -28.285156 17.46875 -27.984375 C 16.476562 -27.691406 15.628906 -27.425781 14.921875 -27.1875 C 14.210938 -26.957031 13.78125 -26.804688 13.625 -26.734375 C 12.6875 -26.421875 11.75 -26.085938 10.8125 -25.734375 C 9.875 -25.378906 8.953125 -25.003906 8.046875 -24.609375 L 7.9375 -24.5 C 7.96875 -24.300781 8.015625 -23.976562 8.078125 -23.53125 C 8.140625 -23.082031 8.195312 -22.660156 8.25 -22.265625 C 8.3125 -21.867188 8.34375 -21.613281 8.34375 -21.5 C 9.988281 -22.207031 11.625 -22.898438 13.25 -23.578125 C 14.875 -24.265625 16.53125 -24.925781 18.21875 -25.5625 C 19.15625 -25.789062 20.101562 -26.03125 21.0625 -26.28125 C 22.019531 -26.539062 22.96875 -26.804688 23.90625 -27.078125 L 24.671875 -27.265625 C 25.023438 -27.335938 25.367188 -27.382812 25.703125 -27.40625 C 26.035156 -27.425781 26.378906 -27.457031 26.734375 -27.5 C 27.472656 -27.53125 28.175781 -27.476562 28.84375 -27.34375 C 29.507812 -27.207031 30.039062 -26.785156 30.4375 -26.078125 C 30.507812 -26.003906 30.554688 -25.925781 30.578125 -25.84375 C 30.597656 -25.769531 30.628906 -25.691406 30.671875 -25.609375 C 30.742188 -25.492188 30.800781 -25.378906 30.84375 -25.265625 C 30.882812 -25.148438 30.925781 -25.03125 30.96875 -24.90625 C 31 -24.863281 31.035156 -24.84375 31.078125 -24.84375 C 31.628906 -24.570312 31.960938 -24.082031 32.078125 -23.375 C 32.191406 -22.832031 32.101562 -22.273438 31.8125 -21.703125 C 31.519531 -21.140625 31.097656 -20.71875 30.546875 -20.4375 C 29.921875 -20.164062 29.285156 -20 28.640625 -19.9375 C 27.992188 -19.882812 27.335938 -19.78125 26.671875 -19.625 C 25.960938 -19.507812 25.242188 -19.378906 24.515625 -19.234375 C 23.796875 -19.097656 23.085938 -18.929688 22.390625 -18.734375 C 20.972656 -18.347656 19.566406 -17.925781 18.171875 -17.46875 C 16.785156 -17.019531 15.410156 -16.503906 14.046875 -15.921875 C 13.179688 -15.566406 12.347656 -15.191406 11.546875 -14.796875 C 10.742188 -14.410156 9.929688 -14.003906 9.109375 -13.578125 L 9.453125 -9.75 C 9.453125 -9.707031 9.453125 -9.675781 9.453125 -9.65625 C 9.453125 -9.644531 9.453125 -9.597656 9.453125 -9.515625 L 9.640625 -9.640625 C 10.304688 -9.953125 10.960938 -10.234375 11.609375 -10.484375 C 12.253906 -10.742188 12.890625 -11.007812 13.515625 -11.28125 L 18.5 -13.21875 C 18.9375 -13.414062 19.378906 -13.59375 19.828125 -13.75 C 20.273438 -13.90625 20.71875 -14.0625 21.15625 -14.21875 C 21.851562 -14.488281 22.554688 -14.75 23.265625 -15 C 23.972656 -15.257812 24.675781 -15.507812 25.375 -15.75 L 27.671875 -16.453125 C 27.984375 -16.523438 28.296875 -16.628906 28.609375 -16.765625 C 28.921875 -16.910156 29.234375 -17.019531 29.546875 -17.09375 C 30.679688 -17.332031 31.609375 -17.234375 32.328125 -16.796875 C 33.054688 -16.367188 33.632812 -15.742188 34.0625 -14.921875 C 34.5 -14.097656 34.828125 -13.195312 35.046875 -12.21875 C 35.265625 -11.238281 35.390625 -10.335938 35.421875 -9.515625 C 35.460938 -9.003906 35.375 -8.539062 35.15625 -8.125 C 34.945312 -7.71875 34.664062 -7.378906 34.3125 -7.109375 Z M 20.09375 -19.5625 C 19.1875 -19.289062 18.273438 -19.015625 17.359375 -18.734375 C 16.441406 -18.460938 15.53125 -18.171875 14.625 -17.859375 C 14.039062 -17.703125 13.460938 -17.535156 12.890625 -17.359375 C 12.328125 -17.179688 11.769531 -17.015625 11.21875 -16.859375 C 11.101562 -16.191406 10.789062 -15.644531 10.28125 -15.21875 C 11.726562 -15.957031 13.207031 -16.617188 14.71875 -17.203125 C 16.226562 -17.796875 17.707031 -18.382812 19.15625 -18.96875 C 19.46875 -19.132812 19.800781 -19.273438 20.15625 -19.390625 Z M 7.109375 0.765625 C 7.535156 0.804688 8.023438 0.816406 8.578125 0.796875 C 9.128906 0.773438 9.441406 0.742188 9.515625 0.703125 C 9.597656 0.703125 9.65625 0.679688 9.6875 0.640625 C 9.925781 0.523438 10.160156 0.410156 10.390625 0.296875 C 10.628906 0.179688 10.847656 0.0625 11.046875 -0.0625 C 11.515625 -0.289062 11.972656 -0.519531 12.421875 -0.75 C 12.867188 -0.988281 13.3125 -1.226562 13.75 -1.46875 L 13.75 -1.59375 C 13.238281 -1.394531 12.707031 -1.195312 12.15625 -1 C 11.613281 -0.800781 11.066406 -0.601562 10.515625 -0.40625 C 9.960938 -0.21875 9.398438 -0.015625 8.828125 0.203125 C 8.265625 0.421875 7.691406 0.609375 7.109375 0.765625 Z M 7.109375 0.765625 "/></g></g></g><g fill="#ffffff" fill-opacity="1"><g transform="translate(246.493246, 213.134806)"><g><path d="M 21.5 -1.765625 C 21.269531 -1.835938 21.003906 -2.242188 20.703125 -2.984375 C 20.410156 -3.734375 20.097656 -4.65625 19.765625 -5.75 C 19.429688 -6.851562 19.117188 -7.988281 18.828125 -9.15625 C 18.535156 -10.332031 18.269531 -11.390625 18.03125 -12.328125 C 17.800781 -13.273438 17.644531 -13.960938 17.5625 -14.390625 L 12.984375 -14.328125 C 12.554688 -12.566406 12.179688 -10.816406 11.859375 -9.078125 C 11.546875 -7.335938 11.3125 -5.566406 11.15625 -3.765625 C 11.15625 -3.410156 10.988281 -3.234375 10.65625 -3.234375 C 10.320312 -3.234375 10.175781 -3.410156 10.21875 -3.765625 C 10.375 -5.523438 10.597656 -7.296875 10.890625 -9.078125 C 11.191406 -10.859375 11.613281 -12.609375 12.15625 -14.328125 L 11.625 -14.328125 C 11.4375 -13.628906 11.242188 -12.78125 11.046875 -11.78125 C 10.847656 -10.78125 10.660156 -9.800781 10.484375 -8.84375 C 10.304688 -7.882812 10.160156 -7.082031 10.046875 -6.4375 C 9.929688 -5.789062 9.875 -5.46875 9.875 -5.46875 L 9.515625 -2.8125 C 9.398438 -1.488281 8.945312 -0.535156 8.15625 0.046875 C 7.375 0.640625 6.515625 0.878906 5.578125 0.765625 C 4.640625 0.648438 3.847656 0.203125 3.203125 -0.578125 C 2.554688 -1.367188 2.332031 -2.445312 2.53125 -3.8125 C 2.757812 -5.539062 3.03125 -7.265625 3.34375 -8.984375 C 3.65625 -10.710938 4.03125 -12.414062 4.46875 -14.09375 C 4.1875 -14.0625 3.910156 -14.035156 3.640625 -14.015625 C 3.367188 -13.992188 3.113281 -13.984375 2.875 -13.984375 C 2.957031 -14.179688 2.976562 -14.359375 2.9375 -14.515625 C 2 -14.742188 1.3125 -15.25 0.875 -16.03125 C 0.445312 -16.820312 0.332031 -17.695312 0.53125 -18.65625 C 0.726562 -19.613281 1.273438 -20.492188 2.171875 -21.296875 C 3.078125 -22.097656 4.410156 -22.632812 6.171875 -22.90625 C 6.597656 -24.863281 7.066406 -26.789062 7.578125 -28.6875 C 8.085938 -30.59375 8.710938 -32.445312 9.453125 -34.25 C 9.804688 -35.03125 10.195312 -35.878906 10.625 -36.796875 C 11.0625 -37.722656 11.601562 -38.53125 12.25 -39.21875 C 12.894531 -39.90625 13.707031 -40.25 14.6875 -40.25 C 15.195312 -40.28125 15.707031 -40.140625 16.21875 -39.828125 C 16.726562 -39.515625 17.097656 -39.125 17.328125 -38.65625 C 18.191406 -38.613281 18.90625 -38.304688 19.46875 -37.734375 C 20.039062 -37.171875 20.363281 -36.421875 20.4375 -35.484375 C 20.519531 -34.304688 20.617188 -33.117188 20.734375 -31.921875 C 20.859375 -30.734375 20.976562 -29.570312 21.09375 -28.4375 C 21.132812 -28.394531 21.171875 -28.375 21.203125 -28.375 C 21.242188 -29.394531 21.289062 -30.40625 21.34375 -31.40625 C 21.40625 -32.40625 21.5 -33.394531 21.625 -34.375 C 21.625 -34.53125 21.648438 -34.175781 21.703125 -33.3125 C 21.765625 -32.445312 21.832031 -31.335938 21.90625 -29.984375 C 21.988281 -28.640625 22.066406 -27.289062 22.140625 -25.9375 C 22.222656 -24.582031 22.320312 -23.457031 22.4375 -22.5625 C 23.570312 -22.445312 24.453125 -22.0625 25.078125 -21.40625 C 25.710938 -20.757812 26.109375 -20.015625 26.265625 -19.171875 C 26.421875 -18.335938 26.34375 -17.507812 26.03125 -16.6875 C 25.71875 -15.863281 25.148438 -15.195312 24.328125 -14.6875 C 24.710938 -12.96875 25.117188 -11.019531 25.546875 -8.84375 C 25.984375 -6.664062 26.320312 -4.695312 26.5625 -2.9375 C 26.71875 -1.601562 26.609375 -0.597656 26.234375 0.078125 C 25.859375 0.765625 25.367188 1.144531 24.765625 1.21875 C 24.160156 1.300781 23.550781 1.085938 22.9375 0.578125 C 22.332031 0.078125 21.851562 -0.703125 21.5 -1.765625 Z M 12.8125 -21.96875 C 13.238281 -22.050781 13.796875 -22.101562 14.484375 -22.125 C 15.171875 -22.144531 15.707031 -22.171875 16.09375 -22.203125 C 16.019531 -22.710938 15.929688 -23.4375 15.828125 -24.375 C 15.734375 -25.320312 15.617188 -26.332031 15.484375 -27.40625 C 15.347656 -28.476562 15.179688 -29.46875 14.984375 -30.375 C 14.515625 -28.726562 14.101562 -27.257812 13.75 -25.96875 C 13.394531 -24.675781 13.082031 -23.34375 12.8125 -21.96875 Z M 12.8125 -21.96875 "/></g></g></g></svg>